<?xml version="1.0" standalone="no"?>
<!DOCTYPE svg PUBLIC "-//W3C//DTD SVG 20010904//EN"
 "http://www.w3.org/TR/2001/REC-SVG-20010904/DTD/svg10.dtd">
<svg version="1.0" xmlns="http://www.w3.org/2000/svg"
 width="146.000000pt" height="160.000000pt" viewBox="0 0 146.000000 160.000000"
 preserveAspectRatio="xMidYMid meet">

<g transform="translate(0.000000,160.000000) scale(0.100000,-0.100000)"
fill="#000000" stroke="none">
<path d="M770 1550 c-19 -11 -82 -38 -140 -61 -189 -75 -242 -113 -280 -202
-65 -150 -16 -340 122 -480 53 -52 61 -64 36 -51 -94 48 -198 195 -214 300
-11 76 -26 35 -32 -88 -5 -130 6 -197 48 -286 77 -162 266 -255 423 -208 26 8
47 11 47 7 0 -4 -13 -27 -28 -52 -96 -150 -294 -230 -457 -185 -28 7 -59 17
-70 22 -20 8 -20 8 -2 -21 31 -50 109 -114 159 -131 100 -33 235 -10 353 61
65 39 94 64 60 50 -109 -43 -160 -57 -220 -62 -80 -6 -80 7 0 26 79 19 171 70
222 121 26 26 75 97 109 156 80 141 111 167 205 172 80 5 123 -9 145 -47 l15
-26 -6 30 c-9 45 -31 73 -75 95 -42 22 -121 27 -164 10 -36 -13 -32 -4 7 20
17 11 47 20 65 20 42 0 33 17 -13 26 -23 4 -59 -1 -107 -16 -142 -43 -330 -13
-419 67 -42 38 -106 156 -114 213 -5 29 -2 26 17 -20 32 -77 52 -112 78 -135
23 -20 23 -20 16 0 -14 48 -26 132 -26 189 0 123 44 232 125 311 44 43 151
105 179 105 28 0 110 -91 143 -158 39 -77 61 -174 71 -307 l8 -100 8 79 c23
214 -48 431 -177 541 -46 40 -67 42 -117 15z"/>
</g>
</svg>
